<?xml version="1.0" encoding="utf-8"?>
<!-- Generator: Adobe Illustrator 16.0.0, SVG Export Plug-In . SVG Version: 6.00 Build 0)  -->
<!DOCTYPE svg PUBLIC "-//W3C//DTD SVG 1.0//EN" "http://www.w3.org/TR/2001/REC-SVG-20010904/DTD/svg10.dtd">
<svg version="1.0" id="Ebene_1" xmlns="http://www.w3.org/2000/svg" xmlns:xlink="http://www.w3.org/1999/xlink" x="0px" y="0px"
	 width="420px" height="17px" viewBox="0 0 420 17" enable-background="new 0 0 420 17" xml:space="preserve">
<g>
	<polygon fill="#1251B0" points="0.646,0 0,0.646 0,2.061 2.061,0 	"/>
	<polygon fill="#1251B0" points="6.398,0 0,6.398 0,7.812 7.812,0 	"/>
	<polygon fill="#1251B0" points="12.15,0 0,12.148 0,13.562 13.564,0 	"/>
	<polygon fill="#1251B0" points="2.313,17 19.314,0 17.9,0 0.899,17 	"/>
	<polygon fill="#1251B0" points="8.064,17 25.065,0 23.651,0 6.65,17 	"/>
	<polygon fill="#1251B0" points="13.816,17 30.817,0 29.403,0 12.402,17 	"/>
	<polygon fill="#1251B0" points="19.567,17 36.568,0 35.154,0 18.153,17 	"/>
	<polygon fill="#1251B0" points="25.318,17 42.319,0 40.905,0 23.904,17 	"/>
	<polygon fill="#1251B0" points="31.07,17 48.07,0 46.656,0 29.656,17 	"/>
	<polygon fill="#1251B0" points="36.822,17 53.822,0 52.408,0 35.408,17 	"/>
	<polygon fill="#1251B0" points="42.572,17 59.573,0 58.159,0 41.158,17 	"/>
	<polygon fill="#1251B0" points="48.323,17 65.324,0 63.91,0 46.909,17 	"/>
	<polygon fill="#1251B0" points="54.075,17 71.075,0 69.661,0 52.661,17 	"/>
	<polygon fill="#1251B0" points="59.826,17 76.827,0 75.413,0 58.412,17 	"/>
	<polygon fill="#1251B0" points="65.577,17 82.578,0 81.164,0 64.163,17 	"/>
	<polygon fill="#1251B0" points="71.329,17 88.329,0 86.915,0 69.915,17 	"/>
	<polygon fill="#1251B0" points="77.08,17 94.081,0 92.667,0 75.666,17 	"/>
	<polygon fill="#1251B0" points="82.831,17 99.832,0 98.418,0 81.417,17 	"/>
	<polygon fill="#1251B0" points="88.582,17 105.583,0 104.169,0 87.168,17 	"/>
	<polygon fill="#1251B0" points="94.333,17 111.334,0 109.92,0 92.919,17 	"/>
	<polygon fill="#1251B0" points="100.084,17 117.085,0 115.671,0 98.67,17 	"/>
	<polygon fill="#1251B0" points="105.835,17 122.836,0 121.422,0 104.421,17 	"/>
	<polygon fill="#1251B0" points="111.587,17 128.588,0 127.174,0 110.173,17 	"/>
	<polygon fill="#1251B0" points="117.338,17 134.339,0 132.925,0 115.924,17 	"/>
	<polygon fill="#1251B0" points="123.089,17 140.09,0 138.676,0 121.675,17 	"/>
	<polygon fill="#1251B0" points="128.841,17 145.842,0 144.428,0 127.427,17 	"/>
	<polygon fill="#1251B0" points="134.592,17 151.593,0 150.179,0 133.178,17 	"/>
	<polygon fill="#1251B0" points="140.343,17 157.344,0 155.93,0 138.929,17 	"/>
	<polygon fill="#1251B0" points="146.094,17 163.095,0 161.681,0 144.68,17 	"/>
	<polygon fill="#1251B0" points="151.846,17 168.846,0 167.432,0 150.432,17 	"/>
	<polygon fill="#1251B0" points="157.597,17 174.598,0 173.184,0 156.183,17 	"/>
	<polygon fill="#1251B0" points="163.348,17 180.349,0 178.935,0 161.934,17 	"/>
	<polygon fill="#1251B0" points="169.1,17 186.101,0 184.687,0 167.686,17 	"/>
	<polygon fill="#1251B0" points="174.851,17 191.852,0 190.438,0 173.437,17 	"/>
	<polygon fill="#1251B0" points="180.602,17 197.603,0 196.189,0 179.188,17 	"/>
	<polygon fill="#1251B0" points="186.354,17 203.354,0 201.94,0 184.939,17 	"/>
	<polygon fill="#1251B0" points="192.104,17 209.105,0 207.691,0 190.69,17 	"/>
	<polygon fill="#1251B0" points="197.855,17 214.856,0 213.442,0 196.441,17 	"/>
	<polygon fill="#1251B0" points="203.607,17 220.608,0 219.194,0 202.193,17 	"/>
	<polygon fill="#1251B0" points="209.358,17 226.359,0 224.945,0 207.944,17 	"/>
	<polygon fill="#1251B0" points="215.109,17 232.11,0 230.696,0 213.695,17 	"/>
	<polygon fill="#1251B0" points="220.861,17 237.862,0 236.448,0 219.447,17 	"/>
	<polygon fill="#1251B0" points="226.612,17 243.613,0 242.199,0 225.198,17 	"/>
	<polygon fill="#1251B0" points="232.363,17 249.364,0 247.95,0 230.949,17 	"/>
	<polygon fill="#1251B0" points="238.114,17 255.115,0 253.701,0 236.7,17 	"/>
	<polygon fill="#1251B0" points="243.865,17 260.866,0 259.452,0 242.451,17 	"/>
	<polygon fill="#1251B0" points="249.617,17 266.618,0 265.204,0 248.203,17 	"/>
	<polygon fill="#1251B0" points="255.368,17 272.369,0 270.955,0 253.954,17 	"/>
	<polygon fill="#1251B0" points="261.119,17 278.12,0 276.706,0 259.705,17 	"/>
	<polygon fill="#1251B0" points="266.871,17 283.872,0 282.458,0 265.457,17 	"/>
	<polygon fill="#1251B0" points="272.622,17 289.623,0 288.209,0 271.208,17 	"/>
	<polygon fill="#1251B0" points="278.373,17 295.374,0 293.96,0 276.959,17 	"/>
	<polygon fill="#1251B0" points="284.124,17 301.125,0 299.711,0 282.71,17 	"/>
	<polygon fill="#1251B0" points="289.875,17 306.876,0 305.462,0 288.461,17 	"/>
	<polygon fill="#1251B0" points="295.627,17 312.628,0 311.214,0 294.213,17 	"/>
	<polygon fill="#1251B0" points="301.378,17 318.379,0 316.965,0 299.964,17 	"/>
	<polygon fill="#1251B0" points="307.129,17 324.13,0 322.716,0 305.715,17 	"/>
	<polygon fill="#1251B0" points="312.88,17 329.881,0 328.467,0 311.466,17 	"/>
	<polygon fill="#1251B0" points="318.632,17 335.633,0 334.219,0 317.218,17 	"/>
	<polygon fill="#1251B0" points="324.383,17 341.384,0 339.97,0 322.969,17 	"/>
	<polygon fill="#1251B0" points="330.134,17 347.135,0 345.721,0 328.72,17 	"/>
	<polygon fill="#1251B0" points="335.885,17 352.886,0 351.472,0 334.471,17 	"/>
	<polygon fill="#1251B0" points="341.637,17 358.638,0 357.224,0 340.223,17 	"/>
	<polygon fill="#1251B0" points="347.388,17 364.389,0 362.975,0 345.974,17 	"/>
	<polygon fill="#1251B0" points="353.139,17 370.14,0 368.726,0 351.725,17 	"/>
	<polygon fill="#1251B0" points="358.89,17 375.891,0 374.477,0 357.476,17 	"/>
	<polygon fill="#1251B0" points="364.642,17 381.643,0 380.229,0 363.228,17 	"/>
	<polygon fill="#1251B0" points="370.393,17 387.394,0 385.979,0 368.979,17 	"/>
	<polygon fill="#1251B0" points="376.144,17 393.145,0 391.73,0 374.729,17 	"/>
	<polygon fill="#1251B0" points="381.895,17 398.896,0 397.482,0 380.481,17 	"/>
	<polygon fill="#1251B0" points="387.646,17 404.647,0 403.233,0 386.232,17 	"/>
	<polygon fill="#1251B0" points="393.397,17 410.398,0 408.984,0 391.983,17 	"/>
	<polygon fill="#1251B0" points="399.148,17 416.149,0 414.735,0 397.734,17 	"/>
	<polygon fill="#1251B0" points="404.899,17 420,1.901 420,0.487 403.485,17 	"/>
	<polygon fill="#1251B0" points="410.651,17 420,7.652 420,6.238 409.237,17 	"/>
	<polygon fill="#1251B0" points="416.402,17 420,13.402 420,11.988 414.988,17 	"/>
</g>
</svg>
